<svg width="8" height="8" viewBox="0 0 8 8" fill="none" xmlns="http://www.w3.org/2000/svg">
<path d="M7.66667 3.66667H4.33333V0.333328C4.33333 0.149234 4.18409 0 4 0C3.81591 0 3.66667 0.149234 3.66667 0.333328V3.66666H0.333328C0.149234 3.66667 0 3.81591 0 4C0 4.18409 0.149234 4.33333 0.333328 4.33333H3.66666V7.66666C3.66666 7.85075 3.81589 7.99998 3.99998 7.99998C4.18408 7.99998 4.33331 7.85075 4.33331 7.66666V4.33333H7.66664C7.85073 4.33333 7.99997 4.18409 7.99997 4C8 3.81591 7.85077 3.66667 7.66667 3.66667Z" fill="#3D1DFF"/>
</svg>
